<svg width="67" height="66" viewBox="0 0 67 66" fill="none" xmlns="http://www.w3.org/2000/svg">
<path d="M5.48815 17.0817L33.5 1.15042L61.5118 17.0817V48.9183L33.5 64.8496L5.48815 48.9183V17.0817Z" stroke="#14B8A6" stroke-width="2"/>
<path d="M24.032 41.288C22.736 41.288 21.528 41.08 20.408 40.664C19.304 40.232 18.344 39.624 17.528 38.84C16.712 38.056 16.072 37.136 15.608 36.08C15.16 35.024 14.936 33.864 14.936 32.6C14.936 31.336 15.16 30.176 15.608 29.12C16.072 28.064 16.712 27.144 17.528 26.36C18.36 25.576 19.328 24.976 20.432 24.56C21.536 24.128 22.744 23.912 24.056 23.912C25.512 23.912 26.824 24.168 27.992 24.68C29.176 25.176 30.168 25.912 30.968 26.888L28.472 29.192C27.896 28.536 27.256 28.048 26.552 27.728C25.848 27.392 25.08 27.224 24.248 27.224C23.464 27.224 22.744 27.352 22.088 27.608C21.432 27.864 20.864 28.232 20.384 28.712C19.904 29.192 19.528 29.76 19.256 30.416C19 31.072 18.872 31.8 18.872 32.6C18.872 33.4 19 34.128 19.256 34.784C19.528 35.44 19.904 36.008 20.384 36.488C20.864 36.968 21.432 37.336 22.088 37.592C22.744 37.848 23.464 37.976 24.248 37.976C25.08 37.976 25.848 37.816 26.552 37.496C27.256 37.16 27.896 36.656 28.472 35.984L30.968 38.288C30.168 39.264 29.176 40.008 27.992 40.52C26.824 41.032 25.504 41.288 24.032 41.288ZM33.5936 41V24.2H36.8096L46.7216 36.296H45.1616V24.2H49.0016V41H45.8096L35.8736 28.904H37.4336V41H33.5936Z" fill="#14B8A6"/>
</svg>
